# xmcd
#
# Track frame offsets: 
#        150
#        14960
#        23962
#        40280
#        55330
#        76400
#        91585
#        106572
#        122825
#        137710
#        149277
#
# Disc length: 2171 seconds
#
# Revision: 4
# Processed by: cddbd v1.5.2PL0 Copyright (c) Steve Scherf et al.
# Submitted via: ExactAudioCopyFreeDBPlugin 1.0
#
DISCID=8f08790b
DTITLE=Nicolette Larson - Sleep, Baby, Sleep
DYEAR=1994
DGENRE=Folk
TTITLE0=Welcome to the World
TTITLE1=Oh Bear
TTITLE2=Starlight, Starbright
TTITLE3=Irish Lullaby
TTITLE4=Barefoot Floors
TTITLE5=Appalachian Lullaby
TTITLE6=I Bid You Goodnight
TTITLE7=Moon and Me
TTITLE8=Rock-A-Bye (Mallory's Song)
TTITLE9=Rocking My Baby to Sleep
TTITLE10=The Moment I Saw You
EXTD=YEAR: 1994
EXTT0=
EXTT1=
EXTT2=
EXTT3=
EXTT4=
EXTT5=Harmony Vocal: David Crosby
EXTT6=Harmony Vocal: Linda Ronstadt
EXTT7=
EXTT8=
EXTT9=
EXTT10=Duet with Graham Nash
PLAYORDER=
